<svg version="1.1" viewBox="0.0 0.0 254.78740157480314 161.501312335958" fill="none" stroke="none" stroke-linecap="square" stroke-miterlimit="10" xmlns:xlink="http://www.w3.org/1999/xlink" xmlns="http://www.w3.org/2000/svg"><clipPath id="p.0"><path d="m0 0l254.7874 0l0 161.50131l-254.7874 0l0 -161.50131z" clip-rule="nonzero"/></clipPath><g clip-path="url(#p.0)"><path fill="#000000" fill-opacity="0.0" d="m0 0l254.7874 0l0 161.50131l-254.7874 0z" fill-rule="evenodd"/><path fill="#ff6f00" d="m145.2442 32.04815l0 0c0 3.8146973E-6 0 7.6293945E-6 0 7.6293945E-6l0 0c0 -3.8146973E-6 0 -7.6293945E-6 0 -7.6293945E-6zm-72.32239 0.6759262c0 0 0 0 0 0l0 0c0 0 0 0 0 0zm-23.967594 -32.724075c-7.722294 0 -15.357273 2.3380308 -22.90495 7.014095c-7.5476685 4.6566606 -14.328929 11.185688 -20.343784 19.587078c-1.9596756 2.7357864 -3.405183 5.2775497 -4.336515 7.6252823c-0.91192687 2.3283272 -1.3678939 4.6760597 -1.3678939 7.0431976c0 2.8910103 0.9410311 5.5491867 2.8231 7.9745293c1.9014671 2.4059448 4.288006 3.6089134 7.1596146 3.6089134c3.2596626 0 6.0924616 -1.6201324 8.4984045 -4.8603897c5.025316 -6.635742 9.478247 -11.350609 13.358795 -14.144608c3.8805466 -2.8133965 6.965584 -4.2200966 9.255112 -4.2200966c1.4552078 0 2.182808 1.4358044 2.182808 4.307411c0 5.5685883 -0.53357315 12.572983 -1.6007233 21.01318c-1.7850533 13.640137 -4.210396 29.792923 -7.2760353 48.458366c-1.8044548 10.167053 -3.1044407 18.199791 -3.899952 24.09822c-0.79550934 5.879036 -1.1932678 10.749123 -1.1932678 14.610268c0 6.4999237 1.3096848 11.108093 3.929058 13.824463c2.6387749 2.6969757 6.68425 4.045471 12.136417 4.045471c5.9760513 0 10.031227 -1.5813293 12.165527 -4.743973c2.1537056 -3.1820526 3.6865196 -8.100647 4.5984497 -14.755783c3.899952 -28.483238 8.731243 -50.97103 14.4938545 -67.46337c5.7820206 -16.511738 11.496132 -27.78474 17.142334 -33.818996c5.646202 -6.034256 10.855835 -9.051382 15.628914 -9.051382c2.2701263 0 3.9387589 0.66939545 5.005913 2.0081844c1.0865555 1.3387909 1.6298294 3.8417435 1.6298294 7.5088654c0 8.110352 -2.716385 26.475056 -8.149155 55.094112c-2.0372925 10.768524 -3.7253265 20.169159 -5.0641174 28.201897c-1.3193893 8.032745 -1.9790802 14.600571 -1.9790802 19.703491c0 6.2476807 1.2805786 10.700623 3.8417435 13.358795c2.5805664 2.6387787 6.4126053 3.9581604 11.496132 3.9581604c5.801422 0 10.050621 -1.5813293 12.747604 -4.743973c2.716385 -3.1820526 4.530548 -8.711838 5.4424744 -16.589355c3.4148865 -26.445938 7.8386993 -47.83747 13.271484 -64.17459c5.4521637 -16.356522 10.972244 -27.833248 16.560242 -34.430183c5.6073914 -6.5969353 10.64241 -9.895403 15.1050415 -9.895403c1.7656555 0 3.133545 0.6402912 4.1036835 1.9208736c0.9895325 1.2611771 1.484314 3.5507011 1.484314 6.868572c0 2.211914 -0.17462158 4.472332 -0.52388 6.7812614c-0.32984924 2.3089256 -0.7955017 4.821579 -1.3970032 7.5379677c-0.582077 2.6969872 -0.9895325 4.579056 -1.2223663 5.646202l-7.159622 32.713036c-2.9104004 13.601326 -4.365616 24.05941 -4.365616 31.374252c0 11.117775 3.2111511 20.062447 9.633469 26.834007c6.4417114 6.7715454 15.260269 10.157333 26.455658 10.157333c7.3342285 0 14.280426 -1.8626556 20.838547 -5.587982c6.57753 -3.7447357 13.106567 -9.546158 19.587082 -17.404282c2.8328094 -3.4342804 4.2492065 -7.9260254 4.2492065 -13.475204c0 -3.220848 -0.72761536 -5.9857407 -2.1828156 -8.294678c-1.4358063 -2.3089294 -3.6186218 -3.4633865 -6.5484314 -3.4633865c-2.9298096 0 -5.481262 1.270874 -7.6543884 3.8126373c-4.928299 5.840225 -9.041672 9.914803 -12.340149 12.223732c-3.298462 2.3089294 -6.529022 3.4633942 -9.691666 3.4633942c-3.0850372 0 -5.4424744 -0.87312317 -7.0723114 -2.6193695c-1.6298218 -1.746254 -2.444748 -4.6469574 -2.444748 -8.702133c0 -4.035774 0.5723877 -8.905869 1.7171478 -14.610275l10.914047 -51.135952c1.5910339 -7.761097 2.3865356 -14.387135 2.3865356 -19.878117c0 -10.555096 -2.5611572 -18.90798 -7.683487 -25.058653c-5.1223297 -6.170075 -12.437164 -9.255113 -21.944504 -9.255113c-11.331207 0 -21.28482 3.8417447 -29.86084 11.525234c-5.3805847 4.8193502 -9.82901 11.660321 -13.345261 20.522915l0 0c-0.45274353 -9.425961 -2.9893188 -16.965431 -7.6097107 -22.618412c-5.1223297 -6.2864914 -12.146118 -9.429737 -21.071388 -9.429737c-11.098373 0 -21.1781 4.113383 -30.23919 12.34015c-5.1896744 4.710804 -9.657043 11.5054455 -13.4021 20.383924l0 0c0.10648346 -1.5892029 0.15972137 -3.086893 0.15972137 -4.4930706c0 -8.905863 -2.0954971 -15.832645 -6.2864914 -20.780348c-4.1909904 -4.967105 -10.137936 -7.450657 -17.840824 -7.4506564z" fill-rule="evenodd"/><path stroke="#000000" stroke-width="1.0" stroke-linejoin="round" stroke-linecap="butt" d="m145.2442 32.04815l0 0c0 3.8146973E-6 0 7.6293945E-6 0 7.6293945E-6l0 0c0 -3.8146973E-6 0 -7.6293945E-6 0 -7.6293945E-6zm-72.32239 0.6759262c0 0 0 0 0 0l0 0c0 0 0 0 0 0zm-23.967594 -32.724075c-7.722294 0 -15.357273 2.3380308 -22.90495 7.014095c-7.5476685 4.6566606 -14.328929 11.185688 -20.343784 19.587078c-1.9596756 2.7357864 -3.405183 5.2775497 -4.336515 7.6252823c-0.91192687 2.3283272 -1.3678939 4.6760597 -1.3678939 7.0431976c0 2.8910103 0.9410311 5.5491867 2.8231 7.9745293c1.9014671 2.4059448 4.288006 3.6089134 7.1596146 3.6089134c3.2596626 0 6.0924616 -1.6201324 8.4984045 -4.8603897c5.025316 -6.635742 9.478247 -11.350609 13.358795 -14.144608c3.8805466 -2.8133965 6.965584 -4.2200966 9.255112 -4.2200966c1.4552078 0 2.182808 1.4358044 2.182808 4.307411c0 5.5685883 -0.53357315 12.572983 -1.6007233 21.01318c-1.7850533 13.640137 -4.210396 29.792923 -7.2760353 48.458366c-1.8044548 10.167053 -3.1044407 18.199791 -3.899952 24.09822c-0.79550934 5.879036 -1.1932678 10.749123 -1.1932678 14.610268c0 6.4999237 1.3096848 11.108093 3.929058 13.824463c2.6387749 2.6969757 6.68425 4.045471 12.136417 4.045471c5.9760513 0 10.031227 -1.5813293 12.165527 -4.743973c2.1537056 -3.1820526 3.6865196 -8.100647 4.5984497 -14.755783c3.899952 -28.483238 8.731243 -50.97103 14.4938545 -67.46337c5.7820206 -16.511738 11.496132 -27.78474 17.142334 -33.818996c5.646202 -6.034256 10.855835 -9.051382 15.628914 -9.051382c2.2701263 0 3.9387589 0.66939545 5.005913 2.0081844c1.0865555 1.3387909 1.6298294 3.8417435 1.6298294 7.5088654c0 8.110352 -2.716385 26.475056 -8.149155 55.094112c-2.0372925 10.768524 -3.7253265 20.169159 -5.0641174 28.201897c-1.3193893 8.032745 -1.9790802 14.600571 -1.9790802 19.703491c0 6.2476807 1.2805786 10.700623 3.8417435 13.358795c2.5805664 2.6387787 6.4126053 3.9581604 11.496132 3.9581604c5.801422 0 10.050621 -1.5813293 12.747604 -4.743973c2.716385 -3.1820526 4.530548 -8.711838 5.4424744 -16.589355c3.4148865 -26.445938 7.8386993 -47.83747 13.271484 -64.17459c5.4521637 -16.356522 10.972244 -27.833248 16.560242 -34.430183c5.6073914 -6.5969353 10.64241 -9.895403 15.1050415 -9.895403c1.7656555 0 3.133545 0.6402912 4.1036835 1.9208736c0.9895325 1.2611771 1.484314 3.5507011 1.484314 6.868572c0 2.211914 -0.17462158 4.472332 -0.52388 6.7812614c-0.32984924 2.3089256 -0.7955017 4.821579 -1.3970032 7.5379677c-0.582077 2.6969872 -0.9895325 4.579056 -1.2223663 5.646202l-7.159622 32.713036c-2.9104004 13.601326 -4.365616 24.05941 -4.365616 31.374252c0 11.117775 3.2111511 20.062447 9.633469 26.834007c6.4417114 6.7715454 15.260269 10.157333 26.455658 10.157333c7.3342285 0 14.280426 -1.8626556 20.838547 -5.587982c6.57753 -3.7447357 13.106567 -9.546158 19.587082 -17.404282c2.8328094 -3.4342804 4.2492065 -7.9260254 4.2492065 -13.475204c0 -3.220848 -0.72761536 -5.9857407 -2.1828156 -8.294678c-1.4358063 -2.3089294 -3.6186218 -3.4633865 -6.5484314 -3.4633865c-2.9298096 0 -5.481262 1.270874 -7.6543884 3.8126373c-4.928299 5.840225 -9.041672 9.914803 -12.340149 12.223732c-3.298462 2.3089294 -6.529022 3.4633942 -9.691666 3.4633942c-3.0850372 0 -5.4424744 -0.87312317 -7.0723114 -2.6193695c-1.6298218 -1.746254 -2.444748 -4.6469574 -2.444748 -8.702133c0 -4.035774 0.5723877 -8.905869 1.7171478 -14.610275l10.914047 -51.135952c1.5910339 -7.761097 2.3865356 -14.387135 2.3865356 -19.878117c0 -10.555096 -2.5611572 -18.90798 -7.683487 -25.058653c-5.1223297 -6.170075 -12.437164 -9.255113 -21.944504 -9.255113c-11.331207 0 -21.28482 3.8417447 -29.86084 11.525234c-5.3805847 4.8193502 -9.82901 11.660321 -13.345261 20.522915l0 0c-0.45274353 -9.425961 -2.9893188 -16.965431 -7.6097107 -22.618412c-5.1223297 -6.2864914 -12.146118 -9.429737 -21.071388 -9.429737c-11.098373 0 -21.1781 4.113383 -30.23919 12.34015c-5.1896744 4.710804 -9.657043 11.5054455 -13.4021 20.383924l0 0c0.10648346 -1.5892029 0.15972137 -3.086893 0.15972137 -4.4930706c0 -8.905863 -2.0954971 -15.832645 -6.2864914 -20.780348c-4.1909904 -4.967105 -10.137936 -7.450657 -17.840824 -7.4506564z" fill-rule="evenodd"/></g></svg>