<svg id="Capa_1" enable-background="new 0 0 512 512" height="512" viewBox="0 0 512 512" width="512" xmlns="http://www.w3.org/2000/svg"><g><g><g><path d="m401.131 280.647h6.021c21.302 0 38.52-17.482 38.091-38.881-.418-20.86-17.98-37.317-38.844-37.317h-108.308c-2.715 0-5.258-.492-7.575-1.376-9.578-3.657-19.847-5.148-30.1-5.148h-6.729c-16.228 0-26.391-17.544-18.317-31.621 14.113-24.609 24.349-51.246 30.348-78.973l5.508-25.458c5.737-18.751 4.286-33.89-2.075-45.434l-20.771-5.223c-6.721 5.893-11.072 13.39-13.062 22.81l-4.412 20.882c-6.013 28.457-16.484 55.785-31.027 80.973l-28.464 49.301c-15.061 26.087-42.895 42.157-73.017 42.157v255.384h49.382c19.945 0 39.629 4.534 57.565 13.26 17.935 8.726 37.619 13.26 57.565 13.26h101.118 9.307v-1.339c16.183-4.398 28.087-19.185 28.087-36.761 0-17.575-11.904-32.363-28.087-36.76v-1.339h11.067c21.041 0 38.099-17.057 38.099-38.099 0-21.041-17.057-38.099-38.099-38.099h16.731c21.042 0 38.099-17.057 38.099-38.099-.002-21.042-17.059-38.1-38.101-38.1z" fill="#ffddce"/><g fill="#ffcbbe"><path d="m261.434 51.755-9.109 42.1c-5.999 27.727-16.235 54.364-30.348 78.973-8.073 14.077 2.09 31.621 18.317 31.621h57.797c-16.228 0-26.39-17.544-18.317-31.621 14.113-24.609 24.349-51.246 30.348-78.973l9.109-42.1c4.896-23.172-9.919-45.925-33.091-50.821-14.034-2.965-27.907 1.308-37.76 10.281 10.84 9.911 16.31 25.13 13.054 40.54z"/><path d="m449.503 280.648h6.021c21.302 0 38.52-17.482 38.091-38.881-.418-20.86-17.98-37.317-38.844-37.317h-33.067-24.77c20.76 0 38.308 16.276 38.877 37.028.591 21.531-16.687 39.17-38.084 39.17h-6.021c21.041 0 38.099 17.057 38.099 38.099 0 21.042-17.057 38.099-38.099 38.099h-16.731c21.041 0 38.099 17.057 38.099 38.099 0 21.042-17.058 38.099-38.099 38.099h-11.067v1.339c16.183 4.398 28.087 19.185 28.087 36.761s-11.904 32.363-28.087 36.761v1.339h.118 47.667 10.012v-1.339c16.183-4.398 28.087-19.185 28.087-36.761 0-17.106-11.277-31.572-26.801-36.387-.758-.235-1.286-.919-1.286-1.713h11.067c21.042 0 38.099-17.057 38.099-38.099 0-21.041-17.057-38.099-38.099-38.099h16.73c21.042 0 38.099-17.057 38.099-38.099.001-21.042-17.056-38.099-38.098-38.099z"/></g><g><path d="m82.897 460.833c14.091 0 25.515-11.423 25.515-25.515v-226.673c0-4.641-4.493-12.811-11.33-12.811h-53.952c-13.671 0-24.754 11.083-24.754 24.754v234.276l8.065 5.969z" fill="#9bc4f9"/></g><path d="m103.083 195.834h-6.001c2.893 4.051 4.601 9.007 4.601 14.365v219.911c0 13.671-11.083 24.754-24.754 24.754h-58.553v32.382c0 13.671 11.083 24.754 24.754 24.754h59.953c13.671 0 24.754-11.083 24.754-24.754v-266.658c-.001-13.671-11.083-24.754-24.754-24.754z" fill="#7fb2f9"/></g></g><g><g><path d="m449.503 288.374h-100.568c-4.267 0-7.726-3.459-7.726-7.726s3.459-7.726 7.726-7.726h100.568c4.267 0 7.726 3.459 7.726 7.726s-3.458 7.726-7.726 7.726z" fill="#ffcbbe"/></g><g><path d="m418.769 364.572h-69.834c-4.267 0-7.726-3.459-7.726-7.726 0-4.268 3.459-7.726 7.726-7.726h69.834c4.267 0 7.726 3.459 7.726 7.726s-3.459 7.726-7.726 7.726z" fill="#ffcbbe"/></g><g><path d="m407.694 440.771h-48.127c-4.267 0-7.726-3.459-7.726-7.726s3.459-7.726 7.726-7.726h48.127c4.267 0 7.726 3.459 7.726 7.726s-3.458 7.726-7.726 7.726z" fill="#ffcbbe"/></g></g></g></svg>